<svg xmlns="http://www.w3.org/2000/svg" viewBox="0 0 512 512" width="512" height="512">
  <defs>
    <linearGradient id="bg" x1="0%" y1="0%" x2="100%" y2="100%">
      <stop offset="0%" stop-color="#2563EB"/>
      <stop offset="100%" stop-color="#1D4ED8"/>
    </linearGradient>
    <linearGradient id="page" x1="0%" y1="0%" x2="0%" y2="100%">
      <stop offset="0%" stop-color="#FFFFFF"/>
      <stop offset="100%" stop-color="#F1F5F9"/>
    </linearGradient>
    <filter id="shadow">
      <feDropShadow dx="0" dy="2" stdDeviation="3" flood-color="#1E3A5F" flood-opacity="0.3"/>
    </filter>
  </defs>

  <!-- Background rounded square -->
  <rect x="12" y="12" width="488" height="488" rx="106" ry="106" fill="url(#bg)"/>

  <!-- Notebook body -->
  <rect x="110" y="80" width="292" height="352" rx="16" ry="16" fill="url(#page)" filter="url(#shadow)"/>

  <!-- Notebook spine/binding -->
  <rect x="110" y="80" width="24" height="352" rx="8" ry="0" fill="#E2E8F0"/>
  <line x1="122" y1="80" x2="122" y2="432" stroke="#CBD5E1" stroke-width="1.5"/>

  <!-- Binding rings -->
  <circle cx="122" cy="130" r="8" fill="none" stroke="#94A3B8" stroke-width="3"/>
  <circle cx="122" cy="200" r="8" fill="none" stroke="#94A3B8" stroke-width="3"/>
  <circle cx="122" cy="270" r="8" fill="none" stroke="#94A3B8" stroke-width="3"/>
  <circle cx="122" cy="340" r="8" fill="none" stroke="#94A3B8" stroke-width="3"/>
  <circle cx="122" cy="410" r="8" fill="none" stroke="#94A3B8" stroke-width="3"/>

  <!-- Text lines on page -->
  <rect x="158" y="130" width="180" height="10" rx="5" fill="#3B82F6" opacity="0.7"/>
  <rect x="158" y="165" width="210" height="6" rx="3" fill="#94A3B8" opacity="0.5"/>
  <rect x="158" y="190" width="190" height="6" rx="3" fill="#94A3B8" opacity="0.5"/>
  <rect x="158" y="215" width="200" height="6" rx="3" fill="#94A3B8" opacity="0.5"/>
  <rect x="158" y="250" width="140" height="8" rx="4" fill="#3B82F6" opacity="0.5"/>
  <rect x="158" y="278" width="210" height="6" rx="3" fill="#94A3B8" opacity="0.5"/>
  <rect x="158" y="303" width="175" height="6" rx="3" fill="#94A3B8" opacity="0.5"/>
  <rect x="158" y="328" width="195" height="6" rx="3" fill="#94A3B8" opacity="0.5"/>

  <!-- Pencil accent -->
  <g transform="translate(310, 350) rotate(-45)">
    <rect x="0" y="0" width="12" height="100" rx="2" fill="#FBBF24"/>
    <polygon points="2,100 10,100 6,116" fill="#F59E0B"/>
    <rect x="0" y="0" width="12" height="14" rx="2" fill="#F472B6"/>
    <rect x="1" y="94" width="10" height="8" fill="#D4D4D8"/>
    <polygon points="4,102 8,102 6,110" fill="#374151"/>
  </g>
</svg>
